<?xml version="1.0" encoding="UTF-8"?>
<svg version="1.1" xmlns="http://www.w3.org/2000/svg" width="148" height="99">
<path d="M0 0 C0.78761719 0.44730469 1.57523438 0.89460937 2.38671875 1.35546875 C11.30433941 6.85343984 17.61159767 14.70675848 20.54638672 24.8972168 C22.65910063 34.69097619 22.06290176 46.30058676 17 55 C16.55269531 55.78761719 16.10539062 56.57523438 15.64453125 57.38671875 C10.14656016 66.30433941 2.29324152 72.61159767 -7.8972168 75.54638672 C-17.69097619 77.65910063 -29.30058676 77.06290176 -38 72 C-38.78761719 71.55269531 -39.57523438 71.10539062 -40.38671875 70.64453125 C-49.30433941 65.14656016 -55.61159767 57.29324152 -58.54638672 47.1027832 C-60.65910063 37.30902381 -60.06290176 25.69941324 -55 17 C-54.55269531 16.21238281 -54.10539062 15.42476562 -53.64453125 14.61328125 C-48.14656016 5.69566059 -40.29324152 -0.61159767 -30.1027832 -3.54638672 C-20.30902381 -5.65910063 -8.69941324 -5.06290176 0 0 Z " fill="#E2E0D8" transform="translate(93,4)"/>
<path d="M0 0 C1.65 0.33 3.3 0.66 5 1 C5 4.63 5 8.26 5 12 C16.55 12 28.1 12 40 12 C40 8.37 40 4.74 40 1 C41.65 0.67 43.3 0.34 45 0 C46.93740653 1.93740653 46.2625055 5.30159872 46.3125 7.875 C46.36857422 9.75832031 46.36857422 9.75832031 46.42578125 11.6796875 C46 15 46 15 44.53808594 16.68041992 C40.73717696 18.65655622 37.19051163 18.44827609 32.96484375 18.43359375 C31.65224327 18.44145653 31.65224327 18.44145653 30.31312561 18.44947815 C28.46649231 18.45589204 26.61981812 18.45456954 24.77319336 18.44604492 C21.94376303 18.43751887 19.1163411 18.46632958 16.28710938 18.49804688 C14.49218811 18.49965857 12.69726326 18.49908196 10.90234375 18.49609375 C10.05542465 18.50732773 9.20850555 18.51856171 8.33592224 18.53013611 C2.51232654 18.46078055 2.51232654 18.46078055 -0.03588867 16.16894531 C-1.38456122 13.13485897 -1.32402765 10.61783461 -1.25 7.3125 C-1.23453125 6.15363281 -1.2190625 4.99476562 -1.203125 3.80078125 C-1 1 -1 1 0 0 Z " fill="#C7C8CC" transform="translate(51,43)"/>
<path d="M0 0 C3.01466156 1.73606969 5.38569425 4.02146793 7.8203125 6.46875 C8.33529297 6.95537109 8.85027344 7.44199219 9.38085938 7.94335938 C10.83984375 9.39453125 10.83984375 9.39453125 13.0078125 12.15625 C12.83203125 14.51171875 12.83203125 14.51171875 12.0078125 16.15625 C7.32689951 16.15625 6.38679646 15.15979129 3.0078125 12.15625 C3.01828613 12.81222168 3.02875977 13.46819336 3.03955078 14.14404297 C3.08103753 17.10640658 3.10711512 20.06870916 3.1328125 23.03125 C3.14957031 24.06378906 3.16632813 25.09632812 3.18359375 26.16015625 C3.19003906 27.14628906 3.19648437 28.13242187 3.203125 29.1484375 C3.21359863 30.05964355 3.22407227 30.97084961 3.23486328 31.90966797 C3.0078125 34.15625 3.0078125 34.15625 1.0078125 36.15625 C-2.52790179 35.62053571 -2.52790179 35.62053571 -3.9921875 34.15625 C-4.07919092 32.52152118 -4.09919813 30.88310945 -4.08984375 29.24609375 C-4.08662109 28.25673828 -4.08339844 27.26738281 -4.08007812 26.24804688 C-4.07169922 25.20712891 -4.06332031 24.16621094 -4.0546875 23.09375 C-4.05017578 22.04896484 -4.04566406 21.00417969 -4.04101562 19.92773438 C-4.02918663 17.3371834 -4.01270439 14.74674441 -3.9921875 12.15625 C-6.9621875 14.63125 -6.9621875 14.63125 -9.9921875 17.15625 C-11.3121875 16.49625 -12.6321875 15.83625 -13.9921875 15.15625 C-13.54304013 10.77967444 -10.64527521 8.29399185 -7.6796875 5.34375 C-7.19306641 4.82876953 -6.70644531 4.31378906 -6.20507812 3.78320312 C-2.64876713 0.20774644 -2.64876713 0.20774644 0 0 Z " fill="#C8C9CC" transform="translate(73.9921875,11.84375)"/>
<path d="M0 0 C0.99 0 1.98 0 3 0 C3 0.66 3 1.32 3 2 C6.7172055 2.95585284 9.28373213 2.90395705 13 2 C13.66 2 14.32 2 15 2 C15.77472656 1.98839844 16.54945312 1.97679688 17.34765625 1.96484375 C18.69150391 1.95130859 18.69150391 1.95130859 20.0625 1.9375 C20.96097656 1.92589844 21.85945313 1.91429688 22.78515625 1.90234375 C25 2 25 2 26 3 C26.04080783 4.99958364 26.04254356 7.00045254 26 9 C24.1875 9.625 24.1875 9.625 22 10 C21.01 9.34 20.02 8.68 19 8 C17.34051015 8.49784695 15.68236162 9.00184942 14.0390625 9.55078125 C10.93648964 10.23429826 8.12815469 9.75703025 5.015625 9.2890625 C2.84443817 8.92902076 2.84443817 8.92902076 0 9 C0 6.03 0 3.06 0 0 Z " fill="#C6C7CC" transform="translate(110,87)"/>
<path d="M0 0 C0.66 0 1.32 0 2 0 C2 2.97 2 5.94 2 9 C-2.75 10.125 -2.75 10.125 -5 9 C-5.804375 9.165 -6.60875 9.33 -7.4375 9.5 C-10 10 -10 10 -13 9 C-14.33568021 9.32380126 -15.66923011 9.65657551 -17 10 C-17.66 9.67 -18.32 9.34 -19 9 C-19 7.02 -19 5.04 -19 3 C-12.71093338 1.64020181 -6.4139266 2 0 2 C0 1.34 0 0.68 0 0 Z M-16 4 C-16 7 -16 7 -16 7 Z M-2 4 C-1.67 4.99 -1.34 5.98 -1 7 C-1 6.01 -1 5.02 -1 4 C-1.33 4 -1.66 4 -2 4 Z " fill="#C7C8CC" transform="translate(39,87)"/>
<path d="M0 0 C0.99 0 1.98 0 3 0 C4 6.625 4 6.625 4 10 C3.2575 9.814375 2.515 9.62875 1.75 9.4375 C-0.87097652 8.82960527 -0.87097652 8.82960527 -2.875 9.5 C-6.03123974 10.24264465 -8.83326733 9.52778878 -12 9 C-12.66 9 -13.32 9 -14 9 C-14 7.68 -14 6.36 -14 5 C-14.66 5 -15.32 5 -16 5 C-16 6.32 -16 7.64 -16 9 C-16.66 9 -17.32 9 -18 9 C-18 6.69 -18 4.38 -18 2 C-12.33333333 2 -6.66666667 2 -1 2 C-0.67 1.34 -0.34 0.68 0 0 Z " fill="#C7C8CC" transform="translate(77,87)"/>
<path d="M0 0 C0.66 0.33 1.32 0.66 2 1 C2 1.66 2 2.32 2 3 C2.969375 2.979375 3.93875 2.95875 4.9375 2.9375 C8 3 8 3 9 4 C9.04080783 5.99958364 9.04254356 8.00045254 9 10 C8.34 10 7.68 10 7 10 C7 8.68 7 7.36 7 6 C6.34 6 5.68 6 5 6 C5 7.32 5 8.64 5 10 C2.03 10 -0.94 10 -4 10 C-4.33 8.68 -4.66 7.36 -5 6 C-5.33 7.32 -5.66 8.64 -6 10 C-6.66 10 -7.32 10 -8 10 C-8 7.03 -8 4.06 -8 1 C-7.34 1 -6.68 1 -6 1 C-6 1.66 -6 2.32 -6 3 C-4.68 3 -3.36 3 -2 3 C-1.34 2.01 -0.68 1.02 0 0 Z " fill="#C7C7CC" transform="translate(90,86)"/>
<path d="M0 0 C4.49113411 0 8.59538982 0.04765185 13 1 C13 2.98 13 4.96 13 7 C9.98968256 7.93423645 9.13349732 8.04449911 6 7 C5.01 7.309375 5.01 7.309375 4 7.625 C2 8 2 8 0.1875 6.875 C-1 5 -1 5 -0.6875 2.3125 C-0.460625 1.549375 -0.23375 0.78625 0 0 Z M9 2 C9 2.99 9 3.98 9 5 C9.66 5 10.32 5 11 5 C10.67 4.01 10.34 3.02 10 2 C9.67 2 9.34 2 9 2 Z " fill="#C7C8CC" transform="translate(45,89)"/>
<path d="M0 0 C1.4540625 0.0309375 1.4540625 0.0309375 2.9375 0.0625 C2.96439216 1.54156892 2.98384621 3.02077483 3 4.5 C3.01160156 5.32371094 3.02320312 6.14742188 3.03515625 6.99609375 C2.9375 9.0625 2.9375 9.0625 1.9375 10.0625 C-0.5625 10.1875 -0.5625 10.1875 -3.0625 10.0625 C-4.0625 9.0625 -4.0625 9.0625 -4.1953125 7.25 C-4.19273438 6.528125 -4.19015625 5.80625 -4.1875 5.0625 C-4.19007812 4.340625 -4.19265625 3.61875 -4.1953125 2.875 C-3.96314697 -0.29337667 -3.23031119 0.06592472 0 0 Z M-1.0625 2.0625 C-1.0625 5.0625 -1.0625 5.0625 -1.0625 5.0625 Z " fill="#C7C8CC" transform="translate(104.0625,88.9375)"/>
<path d="M0 0 C1.99954746 -0.04254356 4.00041636 -0.04080783 6 0 C7 1 7 1 7.0625 4.0625 C7.041875 5.031875 7.02125 6.00125 7 7 C6.01 7.33 5.02 7.66 4 8 C3.67 8.66 3.34 9.32 3 10 C2.01 10 1.02 10 0 10 C0 6.7 0 3.4 0 0 Z M3 2 C3.33 2.99 3.66 3.98 4 5 C4 4.01 4 3.02 4 2 C3.67 2 3.34 2 3 2 Z " fill="#C7C7CC" transform="translate(9,89)"/>
<path d="M0 0 C0.99 0 1.98 0 3 0 C3 2.31 3 4.62 3 7 C3.66 6.67 4.32 6.34 5 6 C5.65772428 2.97065509 5.65772428 2.97065509 6 0 C6.66 0 7.32 0 8 0 C8 2.97 8 5.94 8 9 C5.6875 9.6875 5.6875 9.6875 3 10 C1.1875 9 1.1875 9 0 7 C-0.1875 3.3125 -0.1875 3.3125 0 0 Z " fill="#C7C8CC" transform="translate(0,87)"/>
<path d="M0 0 C0.66 0 1.32 0 2 0 C2 2.97 2 5.94 2 9 C1.34 9 0.68 9 0 9 C0 6.03 0 3.06 0 0 Z " fill="#C7C8CC" transform="translate(17,87)"/>
<path d="M0 0 C1.98 0 3.96 0 6 0 C5.67 0.99 5.34 1.98 5 3 C3.35 2.67 1.7 2.34 0 2 C0 1.34 0 0.68 0 0 Z " fill="#C8C9CD" transform="translate(137,94)"/>
<path d="M0 0 C0.99 0 1.98 0 3 0 C2.67 0.99 2.34 1.98 2 3 C1.34 2.67 0.68 2.34 0 2 C0 1.34 0 0.68 0 0 Z " fill="#C9C9CB" transform="translate(144,94)"/>
</svg>
